Coordinates
version=1
nRows=16
nColumns=43
inDegrees=yes

Units are S.I. units (second, meters, Newtons, ...)
If the header above contains a line with 'inDegrees', this indicates whether rotational values are in degrees (yes) or radians (no).

endheader
time	pelvis_tilt	pelvis_list	pelvis_rotation	pelvis_tx	pelvis_ty	pelvis_tz	hip_flexion_r	hip_adduction_r	hip_rotation_r	knee_angle_r	knee_angle_r_beta	socket_rotation_r	socket_piston_r	SP_rotation_r	ankle_angle_r	ankle_evert_r	ankle_ext_rot_r	hip_flexion_l	hip_adduction_l	hip_rotation_l	knee_angle_l	knee_angle_l_beta	ankle_angle_l	subtalar_angle_l	mtp_angle_l	lumbar_extension	lumbar_bending	lumbar_rotation	arm_flex_r	arm_add_r	arm_rot_r	elbow_flex_r	pro_sup_r	wrist_flex_r	wrist_dev_r	arm_flex_l	arm_add_l	arm_rot_l	elbow_flex_l	pro_sup_l	wrist_flex_l	wrist_dev_l
      7.50000000	     -0.28750610	      5.33866637	     -4.25801409	      1.05761529	      0.97862649	     -0.00434086	      5.98417332	     -5.16294674	      4.81817561	     55.74229237	      0.97288653	      0.00000000	      0.00000000	      0.00000000	      3.27099006	      0.00000000	      9.99997443	     16.08628741	      1.47586169	    -11.36035538	     15.94947532	      0.27837086	     -3.80380251	      0.00000000	      0.00000000	    -10.63704809	     -7.91696710	      6.71022046	      3.91457411	    -15.73889857	      2.55931176	     40.67884636	    131.26428967	      0.00000000	      0.00000000	    -11.59350964	    -16.05350190	    -16.59507251	     35.13797934	    138.94252686	      0.00000000	      0.00000000
      7.50800000	      0.16655150	      5.28873070	     -4.30046923	      1.05879409	      0.98091470	     -0.00637290	      6.75226548	     -5.43633536	      4.11190342	     57.49842481	      1.00353683	      0.00000000	      0.00000000	      0.00000000	      3.65501721	      0.00000000	      9.99997443	     14.79165136	      1.76539552	    -10.75668617	     15.36550961	      0.26817873	     -3.20275214	      0.00000000	      0.00000000	    -11.00035986	     -7.77304708	      6.36738868	      2.80174401	    -15.76688097	      2.12798641	     41.23862040	    131.13581805	      0.00000000	      0.00000000	    -10.86083892	    -16.06625448	    -16.48665236	     35.19578783	    138.60643150	      0.00000000	      0.00000000
      7.51700000	      0.65282859	      5.11563763	     -4.43271633	      1.05934349	      0.98327233	     -0.00783001	      7.55215732	     -5.46060048	      3.67648691	     59.08214662	      1.03117799	      0.00000000	      0.00000000	     -0.00000000	      4.33895567	      0.00000000	      9.99997443	     13.53798164	      1.71150642	    -11.50945309	     15.25903153	      0.26632034	     -2.97886131	      0.00000000	      0.00000000	    -11.62706519	     -7.54549477	      5.86956573	      2.48120679	    -15.51914285	      1.51688564	     40.44197552	    131.28733885	      0.00000000	      0.00000000	    -10.31689518	    -16.14843471	    -16.44060946	     35.48026482	    138.22792981	      0.00000000	      0.00000000
      7.52500000	      0.23736485	      4.81963560	     -4.33638460	      1.05858851	      0.98433504	     -0.00976784	      9.40578727	     -5.35220067	      3.02099236	     60.67452662	      1.05897026	      0.00000000	      0.00000000	      0.00000000	      4.85628370	      0.00000000	      9.99997443	     13.46080437	      1.62631935	    -10.65249191	     14.94236419	      0.26079345	     -2.98446312	      0.00000000	      0.00000000	    -11.27601325	     -7.03500101	      5.84744806	      1.84015129	    -15.66722964	      1.49182734	     39.72290667	    131.63067688	      0.00000000	      0.00000000	     -9.22351587	    -16.33108423	    -15.46757364	     34.74132384	    138.45558391	      0.00000000	      0.00000000
      7.53300000	      0.05043838	      4.82565065	     -4.61077458	      1.05855745	      0.98576855	     -0.01153190	     11.07874796	     -5.55428159	      2.82231594	     62.10186715	      1.08388205	      0.00000000	      0.00000000	     -0.00000000	      4.96033171	      0.00000000	      9.99997443	     12.84252969	      1.84151292	    -10.38021154	     14.41159314	      0.25152975	     -2.60841956	      0.00000000	      0.00000000	    -11.03600365	     -6.88471899	      5.80880746	      1.28116398	    -16.01038176	      1.47655483	     40.75810768	    131.80803272	      0.00000000	      0.00000000	     -8.54541993	    -16.49119315	    -14.88140552	     34.90034851	    138.52509743	      0.00000000	      0.00000000
      7.54200000	      0.00812824	      4.61440483	     -4.68407630	      1.05803173	      0.98716416	     -0.01274282	     12.52398867	     -5.41771054	      2.51947377	     63.30782074	      1.10492991	      0.00000000	      0.00000000	      0.00000000	      4.97918569	      0.00000000	      9.99997443	     12.26853181	      1.78703626	    -10.15129542	     14.06516607	      0.24548346	     -2.14104306	      0.00000000	      0.00000000	    -10.93476641	     -6.56202033	      5.18663374	      1.05618170	    -15.52193182	      0.35436817	     39.72217145	    132.12694800	      0.00000000	      0.00000000	     -7.92735792	    -16.51628940	    -15.00855652	     34.83003870	    138.33544280	      0.00000000	      0.00000000
      7.55000000	     -0.30553870	      4.48613609	     -4.20153852	      1.05745332	      0.98790087	     -0.01441238	     14.13633203	     -5.45576216	      1.78819433	     64.40248047	      1.12403533	      0.00000000	      0.00000000	      0.00000000	      4.99237172	      0.00000000	      9.99997443	     12.22452826	      1.75931773	    -10.79814826	     14.14397295	      0.24685890	     -2.34715552	      0.00000000	      0.00000000	    -10.68084808	     -6.19873639	      4.46497952	      0.41498779	    -15.60996316	      0.56895729	     39.31298310	    132.83483512	      0.00000000	      0.00000000	     -7.21622142	    -16.98684627	    -13.88795461	     34.81443509	    138.00103481	      0.00000000	      0.00000000
      7.55800000	     -0.00715771	      4.30903781	     -4.30643255	      1.05846782	      0.98955509	     -0.01534350	     14.93140155	     -5.27686391	      1.75005810	     65.07219812	      1.13572411	      0.00000000	      0.00000000	     -0.00000000	      4.88619305	      0.00000000	      9.99997443	     10.98177217	      1.79580180	    -10.34871630	     13.62945762	      0.23787891	     -1.88467904	      0.00000000	      0.00000000	    -10.84386595	     -5.90582404	      4.02280866	     -0.20163981	    -15.09027742	     -1.34645669	     39.07239257	    132.52480280	      0.00000000	      0.00000000	     -6.95481985	    -17.21542463	    -13.81480098	     36.05933675	    137.79302545	      0.00000000	      0.00000000
      7.56700000	     -0.05818486	      4.16672990	     -4.35015440	      1.05795454	      0.99051113	     -0.01633577	     16.34168898	     -5.15793137	      1.52477037	     65.78817642	      1.14822029	      0.00000000	      0.00000000	     -0.00000000	      4.98408932	      0.00000000	      9.99997443	     10.32699889	      1.86381094	     -9.83772246	     13.20056228	      0.23039327	     -1.42374432	      0.00000000	      0.00000000	    -10.73198125	     -5.67460356	      4.06121752	     -0.36213381	    -15.46969746	     -0.40143993	     38.15154201	    132.82900286	      0.00000000	      0.00000000	     -5.38444062	    -17.65321344	    -11.94541779	     35.61740438	    137.86050398	      0.00000000	      0.00000000
      7.57500000	      0.39178642	      3.84612513	     -4.42600098	      1.05752216	      0.99248340	     -0.01701060	     16.93289012	     -4.68825933	      1.64596285	     65.96793366	      1.15135764	      0.00000000	      0.00000000	      0.00000000	      5.00658617	      0.00000000	      9.99997443	      8.91561812	      1.77360030	     -9.54526311	     12.15397795	      0.21212693	     -1.41898966	      0.00000000	      0.00000000	    -11.30200061	     -5.29108598	      4.05924137	     -1.80765610	    -14.84830438	     -3.72402897	     38.97143597	    134.27766030	      0.00000000	      0.00000000	     -4.27454442	    -17.64770287	    -12.00051150	     35.68770178	    137.75569408	      0.00000000	      0.00000000
      7.58300000	      0.13896285	      3.12788669	     -3.98426543	      1.05843939	      0.99327852	     -0.01783687	     18.04491773	     -3.90587422	      1.05636880	     65.93673936	      1.15081320	      0.00000000	      0.00000000	     -0.00000000	      4.74953037	      0.00000000	      9.99997443	      8.86811723	      1.03127269	     -9.79573011	     12.83540631	      0.22402010	     -0.70422984	      0.00000000	      0.00000000	    -11.14079337	     -4.42420773	      2.96680887	     -1.84673568	    -15.13735899	     -2.47520708	     37.67331971	    135.05820484	      0.00000000	      0.00000000	     -3.90011609	    -17.85505447	    -12.01795878	     35.70954448	    137.43283639	      0.00000000	      0.00000000
      7.59200000	      0.14580740	      2.97765586	     -3.75253841	      1.05687321	      0.99412699	     -0.01872320	     19.27698436	     -3.74952186	      0.75959127	     66.00621104	      1.15202571	      0.00000000	      0.00000000	      0.00000000	      4.86742956	      0.00000000	      9.99997443	      7.89853890	      1.13016093	     -9.26420824	     11.70229807	      0.20424363	     -0.95988071	      0.00000000	      0.00000000	    -11.23073371	     -4.13128527	      2.04639450	     -2.07242853	    -14.83217102	     -3.72883775	     38.35594975	    134.95521317	      0.00000000	      0.00000000	     -3.27432039	    -17.79810627	    -13.07815004	     36.05600038	    137.22488946	      0.00000000	      0.00000000
      7.60000000	      0.16255185	      2.92866613	     -3.89101200	      1.05690289	      0.99543267	     -0.01930955	     20.31981147	     -3.68961121	      0.70572694	     65.77743990	      1.14803290	      0.00000000	      0.00000000	      0.00000000	      4.89966724	      0.00000000	      9.99997443	      7.47008206	      1.16853057	     -9.35991578	     11.95647420	      0.20867984	     -0.38285352	      0.00000000	      0.00000000	    -11.27714206	     -4.06803924	      1.90879623	     -2.58183670	    -14.92719293	     -3.76688621	     37.51816760	    134.99953009	      0.00000000	      0.00000000	     -2.18477777	    -18.08987500	    -12.20448783	     35.64756984	    137.16929999	      0.00000000	      0.00000000
      7.60800000	      0.08993261	      2.47595396	     -3.84109962	      1.05686360	      0.99632293	     -0.01913607	     21.15202127	     -2.88972891	      0.96841908	     65.07941216	      1.13585002	      0.00000000	      0.00000000	      0.00000000	      4.99346055	      0.00000000	      9.99997443	      6.46874942	      0.82109250	     -8.85158739	     11.10238054	      0.19377310	     -0.10226950	      0.00000000	      0.00000000	    -11.18528354	     -3.59842139	      1.88496749	     -3.29233509	    -14.89382037	     -4.04176996	     36.81784278	    135.01433583	      0.00000000	      0.00000000	     -1.23641755	    -18.21718350	    -12.14446906	     35.81264793	    137.07353376	      0.00000000	      0.00000000
      7.61700000	      0.43612921	      2.29242882	     -3.98452406	      1.05689741	      0.99755041	     -0.01968515	     21.83800299	     -2.68582566	      0.88820105	     64.55472645	      1.12669252	      0.00000000	      0.00000000	      0.00000000	      4.71699243	      0.00000000	      9.99997443	      5.15237811	      0.83160406	     -8.90933447	      9.91381676	      0.17302874	     -0.39748859	      0.00000000	      0.00000000	    -11.55882049	     -3.28296857	      1.86565401	     -4.11395194	    -14.61251526	     -6.54125480	     37.35028735	    140.87335692	      0.00000000	      0.00000000	     -0.22789010	    -18.69278000	    -10.22147512	     36.36238992	    135.09348897	      0.00000000	      0.00000000
      7.62500000	      0.09651541	      1.89138243	     -4.84085213	      1.05463261	      0.99770665	     -0.01886976	     23.21992981	     -1.73931950	      1.63281812	     63.58986447	      1.10985251	      0.00000000	      0.00000000	      0.00000000	      4.98602492	      0.00000000	      9.99997443	      5.23631376	      0.25798040	    -10.13128659	     10.36950145	      0.18098194	     -0.03161584	      0.00000000	      0.00000000	    -11.26786955	     -2.89700261	      2.80744704	     -4.53520552	    -14.60874114	     -7.02216868	     36.98119842	    136.55651498	      0.00000000	      0.00000000	      1.00995873	    -18.93684728	     -9.15560318	     36.35375048	    134.78318771	      0.00000000	      0.00000000
